<svg xmlns="http://www.w3.org/2000/svg" xmlns:xlink="http://www.w3.org/1999/xlink" width="540" height="540" viewBox="0 0 540 540"><defs><linearGradient id="a" x1="0.689" y1="0.268" x2="0.078" y2="0.809" gradientUnits="objectBoundingBox"><stop offset="0" stop-color="#7abfee"/><stop offset="1" stop-color="#0e3d6c"/></linearGradient><filter id="b" x="0" y="0" width="540" height="540" filterUnits="userSpaceOnUse"><feOffset dx="10" dy="10" input="SourceAlpha"/><feGaussianBlur stdDeviation="5" result="c"/><feFlood flood-opacity="0.161"/><feComposite operator="in" in2="c"/><feComposite in="SourceGraphic"/></filter></defs><g transform="translate(-1203 -217)"><g transform="matrix(1, 0, 0, 1, 1203, 217)" filter="url(#b)"><circle cx="255" cy="255" r="255" transform="translate(5 5)" fill="url(#a)"/></g><g transform="translate(1337 229.338)" fill="#fff"><path d="M 252.4999084472656 401.1618957519531 L 0.499992698431015 401.1618957519531 L 0.499992698431015 96.16189575195313 L 207.1902008056641 96.16189575195313 L 252.4999084472656 148.2851104736328 L 252.4999084472656 401.1618957519531 Z" stroke="none"/><path d="M 251.9999084472656 400.6618957519531 L 251.9999084472656 148.4720611572266 L 206.9623413085938 96.66189575195313 L 0.9999926686286926 96.66189575195313 L 0.9999926686286926 400.6618957519531 L 251.9999084472656 400.6618957519531 M 252.9999084472656 401.6629028320313 L 252.9999084472656 401.6618957519531 L -7.314828508242499e-06 401.6618957519531 L -7.314828508242499e-06 95.66189575195313 L 207.4180755615234 95.66189575195313 L 252.9999084472656 148.0981750488281 L 252.9999084472656 401.6618957519531 L 252.9999084472656 401.6629028320313 Z" stroke="none" fill="#707070"/></g><g transform="translate(1501.525 204.62)" fill="#1c7ad8"><path d="M 68.03945922851563 170.8807067871094 L 42.97460556030273 170.8807067871094 L 42.97460556030273 142.0470428466797 L 68.03945922851563 170.8807067871094 Z" stroke="none"/><path d="M 66.94229888916016 170.3807067871094 L 43.47460556030273 143.3843536376953 L 43.47460556030273 170.3807067871094 L 66.94229888916016 170.3807067871094 M 69.13661956787109 171.3807067871094 L 69.13442993164063 171.3807067871094 L 42.47460556030273 171.3807067871094 L 42.47460556030273 140.7097473144531 L 69.13516998291016 171.3790435791016 L 69.13661956787109 171.3807067871094 Z" stroke="none" fill="#707070"/></g><g transform="translate(1350 268)" fill="#1c7ad8"><path d="M 226.4997863769531 349.5001220703125 L 0.5000079870223999 349.5001220703125 L 0.5000079870223999 70.50019073486328 L 177.5001831054688 70.50019073486328 L 177.5001831054688 118.9998016357422 L 177.5001831054688 119.4998016357422 L 178.0001831054688 119.4998016357422 L 226.4997863769531 119.4998016357422 L 226.4997863769531 349.5001220703125 Z" stroke="none"/><path d="M 225.9997863769531 349.0001220703125 L 225.9997863769531 119.9998016357422 L 178.0001831054688 119.9998016357422 L 177.0001831054688 119.9998016357422 L 177.0001831054688 118.9998016357422 L 177.0001831054688 71.00019073486328 L 1.0000079870224 71.00019073486328 L 1.0000079870224 349.0001220703125 L 225.9997863769531 349.0001220703125 M 226.9997863769531 350.0011291503906 L 226.9997863769531 350.0001220703125 L 7.960727998579387e-06 350.0001220703125 L 7.960727998579387e-06 70.00019073486328 L 178.0001831054688 70.00019073486328 L 178.0001831054688 118.9998016357422 L 226.9997863769531 118.9998016357422 L 226.9997863769531 350.0001220703125 L 226.9997863769531 350.0011291503906 Z" stroke="none" fill="#707070"/></g><g transform="translate(1386 463)" fill="#fff" stroke="#707070" stroke-width="1"><rect width="158" height="13" stroke="none"/><rect x="0.5" y="0.5" width="157" height="12" fill="none"/></g><g transform="translate(1385 525)" fill="#fff" stroke="#707070" stroke-width="1"><rect width="158" height="13" stroke="none"/><rect x="0.5" y="0.5" width="157" height="12" fill="none"/></g><g transform="translate(1385 587)" fill="#fff" stroke="#707070" stroke-width="1"><rect width="158" height="13" stroke="none"/><rect x="0.5" y="0.5" width="157" height="12" fill="none"/></g><g transform="translate(1385 401)" fill="#fff" stroke="#707070" stroke-width="1"><rect width="158" height="13" stroke="none"/><rect x="0.5" y="0.5" width="157" height="12" fill="none"/></g></g></svg>